# xmcd
#
# Track frame offsets:
#	150
#	16475
#	33109
#	49444
#	66016
#	83972
#	101767
#	118246
#	133413
#	150430
#
# Disc length: 2214 seconds
#
# Revision: 2
# Processed by: cddbd v1.5.1PL0 Copyright (c) Steve Scherf et al.
# Submitted via: dBpowerAMP V4.0
#
DISCID=8708a40a
DTITLE=Raimundo Amador - En La Esquina De Las Vegas
DYEAR=1997
DGENRE=blues
TTITLE0=Pa Mojar
TTITLE1=Hoy No Estoy Pa Nadie
TTITLE2=Candela
TTITLE3=Mi Novia No Tiene Miedo
TTITLE4=Con La Punta Del Pie
TTITLE5=En La Esquina De Las Vegas
TTITLE6=Tu Te Lo Pierdes
TTITLE7=Yo Seria Pirata
TTITLE8=Solo Solito
TTITLE9=Take Five
EXTD=
EXTT0=
EXTT1=
EXTT2=
EXTT3=
EXTT4=
EXTT5=
EXTT6=
EXTT7=
EXTT8=
EXTT9=
PLAYORDER=
